<?xml version="1.0" standalone="no"?>
<!DOCTYPE svg PUBLIC "-//W3C//DTD SVG 1.1//EN" "http://www.w3.org/Graphics/SVG/1.1/DTD/svg11.dtd" >
<!--
2013-9-30: Created.
-->
<svg>
<metadata>
Created by iconfont
</metadata>
<defs>

<font id="iconfont" horiz-adv-x="1024" >
  <font-face
    font-family="iconfont"
    font-weight="500"
    font-stretch="normal"
    units-per-em="1024"
    ascent="896"
    descent="-128"
  />
    <missing-glyph />
    
    <glyph glyph-name="hcp" unicode="&#58935;" d="M227.082437-114.47619 775.82068-114.47619 818.408621-114.47619C831.871271-114.47619 849.275833-123.13077 857.410635-133.977198L901.301981-192.498993C909.379562-203.269108 905.109506-212 891.551478-212L818.399234-212C804.936608-212 787.532046-203.34542 779.39722-192.498993L757.451559-163.238095 245.451559-163.238095 223.505873-192.498993C215.371071-203.34542 197.966509-212 184.503859-212L111.351615-212C97.793611-212 93.523531-203.269108 101.601111-192.498993L145.492458-133.977198C153.627284-123.13077 171.031847-114.47619 184.494472-114.47619L227.082437-114.47619ZM395.690864 728.407247C289.547973 711.039768 170.695755 678.121972 170.695755 678.121972 144.545282 671.332242 122.821975 643.974351 121.928072 617.156766L99.976901-41.378341C99.529267-54.807101 110.143027-65.714286 123.684232-65.714286L879.218592-65.714286C892.971863-65.714286 903.373948-54.818706 902.925924-41.378341L880.974752 617.156766C880.085847 643.824091 858.26153 671.195416 832.239984 677.956766 832.239984 677.956766 715.502131 709.866264 609.081907 727.489743 597.693661 775.934866 554.196775 812 502.276464 812 450.684442 812 407.40969 776.389547 395.690864 728.407247L395.690864 728.407247ZM173.133607 568.123185C173.133607 595.09081 195.035943 616.952381 222.074224 616.952381L782.478704 616.952381C809.507866 616.952381 831.419321 595.166952 831.419321 568.123185L831.419321 348.829196C831.419321 321.861571 809.51696 300 782.478704 300L222.074224 300C195.045061 300 173.133607 321.785429 173.133607 348.829196L173.133607 568.123185ZM502.276464 641.333333C535.939537 641.333333 563.228845 668.622641 563.228845 702.285714 563.228845 735.948788 535.939537 763.238095 502.276464 763.238095 468.61339 763.238095 441.324083 735.948788 441.324083 702.285714 441.324083 668.622641 468.61339 641.333333 502.276464 641.333333ZM270.657416 31.809524C311.053095 31.809524 343.800273 64.556702 343.800273 104.952381 343.800273 145.348059 311.053095 178.095238 270.657416 178.095238 230.261738 178.095238 197.514559 145.348059 197.514559 104.952381 197.514559 64.556702 230.261738 31.809524 270.657416 31.809524ZM733.895511 31.809524C774.29119 31.809524 807.038368 64.556702 807.038368 104.952381 807.038368 145.348059 774.29119 178.095238 733.895511 178.095238 693.499833 178.095238 660.752654 145.348059 660.752654 104.952381 660.752654 64.556702 693.499833 31.809524 733.895511 31.809524Z"  horiz-adv-x="1024" />

    
    <glyph glyph-name="haoyou" unicode="&#59315;" d="M958.794417 64.017404c0-34.434254-24.849968-62.294788-65.958224-61.544705-20.6319 0.101307-19.025309-0.400113-37.901215 0-32.92283 0.701988-30.769794 20.727067-41.508369 61.544705-26.402323 100.587929-138.044006 232.249575-163.489538 247.461021-67.165726 40.108486 18.067494 13.456477 18.067494 142.511761 0 33.125445-7.525394 74.739215-21.078061 102.748129-10.543124 21.935592-19.276019 42.167379 21.078061 40.911782 80.266092-2.563382 145.368832-64.357773 145.368832-143.659911 0-49.752124-25.552979-93.568049-64.452941-119.369691 7.584746-1.760087 15.312754-3.563152 23.898293-5.823636C879.534236 297.778402 958.794417 170.578372 958.794417 64.017404L958.794417 64.017404 958.794417 64.017404 958.794417 64.017404zM746.011196-6.413692c-0.249687-32.923854-14.456247-65.751516-70.371744-65.704444-125.896338 0.149403-478.973816-0.451278-539.910677 0-68.316945 0.506537-70.524217 34.131355-70.524217 65.704444 0 152.148235 103.804181 288.426015 243.097644 327.679018-61.287855 32.731472-92.009554 93.717452-92.009554 164.29795 0 102.94972 84.882226 186.726775 189.290157 186.726775 104.306624 0 189.18885-83.776032 189.18885-186.726775 0-70.580498-33.683147-131.565455-94.972025-164.29795C639.247614 282.013347 747.515457 144.330568 746.011196-6.413692L746.011196-6.413692 746.011196-6.413692 746.011196-6.413692zM746.011196-6.413692"  horiz-adv-x="1024" />

    
    <glyph glyph-name="zhongchou" unicode="&#58892;" d="M967.12192 134.09792c-47.872 19.67104-288.896 117.99552-334.4128 124.91776-27.68896 4.42368-54.29248-8.45824-70.38464-32.22528-13.42464-19.84-16.81408-43.2896-9.0368-62.7456 4.74624-11.88864 22.88128-36.68992 44.36992-63.89248-51.7632 0.08192-130.82112 7.07072-215.10144 39.5776-34.88256 13.50144-77.47072 58.71616-115.06176 98.65728-53.53984 56.82176-104.0896 110.49984-159.06304 110.49984-20.4544 0-39.8336-7.64416-56.1152-22.0672-21.02784-18.62656-40.93952-55.88992-16.6656-127.37536 39.86944-117.4272 197.47328-301.87008 344.22272-312.3712 0 0 571.86304-0.13824 573.68064-0.10752 19.30752 0.60928 35.70688 16.384 35.70688 35.69152L989.2608 101.12C989.25568 115.53792 980.50048 128.6144 967.12192 134.09792L967.12192 134.09792 967.12192 134.09792zM503.49056 886.29248c-226.39104 0-410.5216-184.09472-410.5216-410.4448 0-31.44704 3.86048-61.95712 10.60352-91.40224 0.43008 0 0.82432 0.1024 1.28512 0.1024 70.39488 0 126.00832-59.06944 184.9856-121.63072 31.55456-33.47456 74.60352-79.30368 102.02112-89.91232 46.26432-17.8432 90.84416-27.52 129.6128-32.48128-2.3552 4.32128-3.81952 7.57248-4.89472 10.2144-12.20096 30.47936-7.49568 66.38592 12.61056 96.00512 20.66432 30.5152 53.97504 48.78848 89.12896 48.78848 5.4272 0 10.92608-0.4608 16.45568-1.32096 27.776-4.21376 111.98464-35.40992 194.19648-67.64032 53.12 69.1712 85.10464 155.43808 85.10464 249.1904C914.0736 702.19776 729.87648 886.29248 503.49056 886.29248L503.49056 886.29248 503.49056 886.29248zM620.04736 594.78528c19.73248 0 35.69152-15.99488 35.69152-35.69664 0-19.69664-15.95392-35.68128-35.69152-35.68128l-71.46496 0 0-35.69664 71.46496 0c19.73248 0 35.69152-15.98976 35.69152-35.6864 0-19.69664-15.95392-35.69152-35.69152-35.69152l-71.46496 0 0-71.59808c0-19.73248-15.95904-35.69152-35.70176-35.69152-19.70688 0-35.70176 15.95392-35.70176 35.69152L477.17888 416.3328 405.7856 416.3328c-19.70176 0-35.69152 15.99488-35.69152 35.69152 0 19.70176 15.99488 35.6864 35.69152 35.6864l71.38816 0 0 35.69664L405.7856 523.40736c-19.70176 0-35.69152 15.98464-35.69152 35.68128 0 19.70176 15.99488 35.69664 35.69152 35.69664l57.04192 0L380.2624 677.1968c-13.952 13.91616-13.98784 36.51584-0.03072 50.5088 13.9264 13.98784 36.51584 13.98784 50.5088 0.0256l81.82272-81.65888 85.06368 82.08896c14.208 13.63456 36.76672 13.30688 50.46272-0.89088 13.71648-14.17216 13.29152-36.7616-0.89088-50.46784l-84.95104-81.97632 57.78944 0L620.04736 594.78528 620.04736 594.78528zM620.04736 594.78528"  horiz-adv-x="1024" />

    
    <glyph glyph-name="dianhua1" unicode="&#59042;" d="M715.167135 729.198703c0 0 138.378378 84.770595 210.11373 18.847135 89.669189-82.418162 90.610162-95.315027 69.853405-118.368865s-124.706595-99.687784-152.880432-116.874378c-35.84-21.863784-98.553081 46.882595-115.296865 59.973189-24.603676 19.179243-2.324757 26.513297-108.405622-61.689081s-241.580973-225.556757-249.081081-238.121514c-2.131027-3.597838-17.546378-9.880216 41.513514-85.324108 35.203459-44.972973-8.911568-99.272649-38.303135-126.948324s-74.696649-73.672649-102.372324-69.078486-161.459892 78.432865-122.243459 159.135135 168.849297 254.14573 304.183351 380.457514C595.801946 665.184865 715.167135 729.198703 715.167135 729.198703zM728.091676 74.226162m-102.150919 0a3.691 3.691 0 1 0 204.301838 0 3.691 3.691 0 1 0-204.301838 0ZM1077.358703 74.226162m-102.150919 0a3.691 3.691 0 1 0 204.301838 0 3.691 3.691 0 1 0-204.301838 0Z"  horiz-adv-x="1329" />

    
    <glyph glyph-name="youqia" unicode="&#59023;" d="M966.4 14.933333 57.6 14.933333c-32 0-57.6 25.6-57.6 57.6l0 426.666667 1024 0 0-426.666667C1024 40.533333 998.4 14.933333 966.4 14.933333zM341.333333 185.6 113.066667 185.6c-14.933333 0-27.733333-12.8-27.733333-27.733333C85.333333 140.8 98.133333 128 113.066667 128L341.333333 128c14.933333 0 27.733333 12.8 27.733333 27.733333C369.066667 172.8 356.266667 185.6 341.333333 185.6zM0 697.6c0 32 25.6 57.6 57.6 57.6l910.933333 0c32 0 57.6-25.6 57.6-57.6l0-85.333333L0 612.266667 0 697.6z"  horiz-adv-x="1027" />

    
    <glyph glyph-name="huafei" unicode="&#58922;" d="M545.616416 482.461538 483.387183 482.461538 392.432309 640 334.769231 606.708206 406.503077 482.461538 334.769231 482.461538 334.769231 403.692308 472.615385 403.692308 472.615385 344.615385 334.769231 344.615385 334.769231 265.846154 472.615385 265.846154 472.615385 167.384615 551.384615 167.384615 551.384615 265.846154 689.230769 265.846154 689.230769 344.615385 551.384615 344.615385 551.384615 403.692308 689.230769 403.692308 689.230769 482.461538 622.500521 482.461538 694.234368 606.708206 636.57129 640 545.616416 482.461538ZM118.153846 699.168625C118.153846 807.875591 206.219341 896 314.889979 896L709.11002 896C817.764387 896 905.846154 807.808062 905.846154 699.168625L905.846154 68.831376C905.846154-39.875592 817.780659-128 709.11002-128L314.889979-128C206.235613-128 118.153846-39.808061 118.153846 68.831376L118.153846 699.168625ZM512-68.923077C544.627283-68.923077 571.076923-42.473437 571.076923-9.846154 571.076923 22.781129 544.627283 49.230769 512 49.230769 479.372717 49.230769 452.923077 22.781129 452.923077-9.846154 452.923077-42.473437 479.372717-68.923077 512-68.923077ZM413.538462 807.384615C413.538462 823.698257 426.764918 836.923077 443.019835 836.923077L580.980165 836.923077C597.262277 836.923077 610.461538 823.811993 610.461538 807.384615 610.461538 791.070974 597.235082 777.846154 580.980165 777.846154L443.019835 777.846154C426.737723 777.846154 413.538462 790.957238 413.538462 807.384615Z"  horiz-adv-x="1024" />

    
    <glyph glyph-name="ranqi" unicode="&#58883;" d="M587.850655-127.983844C587.850655-127.983844 889.265988-102.877277 936.763669 213.344104 936.771254 426.370669 762.307162 547.086987 762.307162 547.086987 762.307162 547.086987 726.429802 482.682195 686.456507 463.651266 686.775079 460.753771 794.429914 751.944436 436.149345 896 435.724581 890.584263 452.31312 819.534955 451.319476 789.809083 450.325832 760.083211 425.446817 625.789626 292.0331 524.33179 158.619383 422.873954 89.42083 349.761507 87.236331 213.344104 85.051833 76.926701 160.00745-70.162889 420.979214-127.983844 420.766832-129.591878 314.939998-10.878017 314.788297 122.323318 314.636595 255.524653 442.156717 343.663115 504.414934 380.215545 503.042038 380.632724 497.626301 357.081096 496.829869 319.535021 496.033437 281.988947 519.607821 215.172105 565.095459 175.418777 610.583096 135.665448 649.145569 71.313752 648.531179 31.302532 647.916789-8.708689 616.681489-89.610997 587.850655-127.983844Z"  horiz-adv-x="1024" />

    
    <glyph glyph-name="erweima" unicode="&#58912;" d="M72.704 856.064l375.808 0c37.888-4.096 28.672-69.632 28.672-113.664L477.184 537.6c0-45.056 8.192-99.328-21.504-111.616-19.456-8.192-71.68-2.048-97.28-2.048L159.744 423.936c-46.08 0-109.568-11.264-115.712 28.672L44.032 828.416C49.152 841.728 57.344 851.968 72.704 856.064L72.704 856.064 72.704 856.064zM123.904 772.096l0-267.264 271.36 0L395.264 775.168 125.952 775.168C123.904 775.168 123.904 774.144 123.904 772.096L123.904 772.096 123.904 772.096zM577.536 856.064l375.808 0c15.36-5.12 25.6-16.384 28.672-33.792l0-365.568c-3.072-15.36-11.264-28.672-26.624-32.768-24.576-7.168-65.536-1.024-94.208-1.024L668.672 422.912c-28.672 0-72.704-6.144-96.256 1.024-33.792 10.24-23.552 74.752-23.552 119.808L548.864 736.256C548.864 787.456 536.576 848.896 577.536 856.064L577.536 856.064 577.536 856.064zM629.76 772.096l0-267.264L901.12 504.832 901.12 775.168 630.784 775.168C628.736 775.168 628.736 774.144 629.76 772.096L629.76 772.096 629.76 772.096zM247.808 693.248c37.888 7.168 67.584-18.432 68.608-52.224 1.024-45.056-46.08-69.632-81.92-51.2C192.512 611.328 195.584 684.032 247.808 693.248L247.808 693.248 247.808 693.248zM752.64 693.248c89.088 16.384 87.04-122.88 0-108.544C697.344 593.92 695.296 683.008 752.64 693.248L752.64 693.248 752.64 693.248zM446.464-81.92L73.728-81.92c-15.36 5.12-25.6 14.336-30.72 29.696L43.008 322.56c4.096 11.264 12.288 23.552 25.6 27.648 24.576 7.168 65.536 1.024 94.208 1.024l193.536 0c28.672 0 69.632 6.144 96.256-1.024 34.816-10.24 25.6-73.728 25.6-117.76l0-197.632C478.208-14.336 488.448-77.824 446.464-81.92L446.464-81.92 446.464-81.92zM123.904 266.24l0-267.264 271.36 0L395.264 270.336 125.952 270.336C123.904 270.336 123.904 268.288 123.904 266.24L123.904 266.24 123.904 266.24zM983.04 317.44l0-104.448c-3.072-34.816 0-75.776-1.024-113.664L712.704 99.328l0 61.44c-25.6 3.072-56.32 0-82.944 1.024-3.072-78.848 0-162.816-1.024-243.712l-49.152 0c-41.984 8.192-30.72 70.656-30.72 120.832L548.864 231.424c0 28.672-6.144 72.704 1.024 96.256 8.192 27.648 46.08 23.552 82.944 23.552l183.296 0 0-165.888L901.12 185.344c1.024 54.272-2.048 112.64 1.024 165.888C943.104 353.28 979.968 353.28 983.04 317.44L983.04 317.44 983.04 317.44zM253.952 189.44c39.936 4.096 73.728-33.792 58.368-75.776-21.504-58.368-125.952-36.864-106.496 36.864C211.968 171.008 227.328 186.368 253.952 189.44L253.952 189.44 253.952 189.44zM803.84-81.92l-91.136 0c1.024 31.744-2.048 67.584 1.024 97.28l90.112 0L803.84-81.92 803.84-81.92 803.84-81.92zM983.04 15.36l0-63.488c-3.072-17.408-14.336-28.672-30.72-33.792l-64.512 0c1.024 31.744-2.048 67.584 1.024 97.28L983.04 15.36 983.04 15.36 983.04 15.36zM983.04 15.36"  horiz-adv-x="1024" />

    
    <glyph glyph-name="fuzhi" unicode="&#58894;" d="M819.2 793.59H384c-56.576 0-102.4-45.824-102.4-102.4h486.053c28.468 0 51.547-22.776 51.547-50.974V127.99c56.525 0 102.4 45.875 102.4 102.4v460.8c0 56.576-45.875 102.4-102.4 102.4z m-153.6-307.2H204.8V537.6h460.8v-51.21z m0-153.6H204.8v51.2h460.8v-51.2z m-512.077 307.2c-28.234 0-51.123-22.912-51.123-51.124v-563.353c0-28.235 22.911-51.123 51.123-51.123h563.354C745.11-25.61 768-2.7 768 25.513V588.866c0 28.235-22.911 51.124-51.123 51.124H153.523z"  horiz-adv-x="1024" />

    
    <glyph glyph-name="jiaoyi" unicode="&#59215;" d="M512.842903 749.366421l-310.159284-110.580907v-320.649967c0-190.456045 310.159284-298.555678 310.159284-298.555678s310.159284 108.099633 310.159285 298.555678V638.785514l-310.159285 110.580907z m145.957311-430.25296h-121.631092v-105.417667h-48.652437v105.417667h-121.631092v48.652437h121.631092v42.570882h-97.304873v48.652437h44.66172l-61.860357 61.860357 34.398489 34.398489 96.260063-96.260062h13.487671l96.253981 96.260062 34.39849-34.398489-61.85306-61.860357h47.516403v-48.652437h-97.304874v-42.570882h121.631092v-48.652437z"  horiz-adv-x="1024" />

    
    <glyph glyph-name="shezhi" unicode="&#58889;" d="M949.7 469.5c-4.9 25.6-20.2 42.1-38.9 41.6H907c-64.2 0-116.4 52.2-116.4 116.4 0 21.2 10.1 44.3 10.1 44.5 9.9 22.3 2.3 49.7-17.7 63.7l-1.1 0.7-112 62.2-1.1 0.5c-6.6 2.9-13.9 4.3-21.6 4.3-16 0-31.6-6.4-41.8-17-13.7-14.1-56.8-50.8-91.6-50.8-35.1 0-78.5 37.4-92.2 51.7-10.3 10.9-26 17.3-42.2 17.3-7.6 0-14.7-1.4-21.2-4.2l-1.4-0.4-115.9-63.7-1.1-0.8c-20.1-14-27.8-41.3-17.9-63.6 0.1-0.2 10.1-23.5 10.1-44.6 0-64.2-52.2-116.4-116.4-116.4h-3.9c-18.7 0.5-34-16-38.9-41.6-0.4-2.1-9.4-50.1-9.4-87.8 0-37.8 9-85.8 9.4-87.8C77.6 268.4 92.5 252 111 252h4.6c64.2 0 116.4-52.2 116.4-116.4 0-21.2-10.1-44.3-10.1-44.5-9.9-22.3-2.3-49.7 17.7-63.7l1.1-0.7 109.9-61.5 1.1-0.5c6.6-2.9 13.8-4.4 21.6-4.4 16.1 0 31.9 6.6 42.1 17.7 12.9 14 57.7 54 93.6 54 36.2 0 80.3-39.7 94.2-55 10.2-11.3 26.1-18 42.3-18 7.6 0 14.6 1.4 21.2 4.2l1.2 0.5L781.6 27l1.1 0.8c20 14 27.7 41.4 17.8 63.6-0.1 0.2-10.1 23.5-10.1 44.6 0 64.2 52.2 116.4 116.4 116.4h3.9c18.7-0.4 34 16 38.9 41.6 0.4 2 9.4 50 9.4 87.8 0 37.7-8.9 85.7-9.3 87.7zM509.2 227.2c-85.5 0-155.1 69.6-155.1 155.1s69.6 155.1 155.1 155.1 155.1-69.6 155.1-155.1-69.6-155.1-155.1-155.1zM509.2 484.7c-56.4 0-102.4-45.9-102.4-102.4 0-56.4 45.9-102.4 102.4-102.4 56.4 0 102.4 45.9 102.4 102.4-0.1 56.5-45.9 102.4-102.4 102.4z"  horiz-adv-x="1024" />

    
    <glyph glyph-name="icon-test" unicode="&#59161;" d="M511.006118 867.087059C777.035294 867.087059 992.737882 650.992941 992.677647 384.602353c-0.060235-265.848471-216.304941-481.370353-482.876235-481.28C244.073412-96.587294 28.762353 119.838118 28.912941 386.56 29.063529 651.474824 245.398588 867.117176 511.006118 867.087059zM316.536471 269.010824h423.393882c4.397176 0 8.854588 0.030118 13.191529 0.512a22.738824 22.738824 0 0 1 20.961883 22.859294c0.090353 12.528941-8.402824 22.106353-21.172706 23.521882-3.824941 0.421647-7.770353 0.421647-11.65553 0.421647H269.281882c-3.132235 0-6.234353-0.060235-9.33647-0.240941-10.330353-0.602353-17.709176-5.541647-21.473883-15.179294-3.794824-9.758118-0.993882-18.281412 6.053647-25.660236 8.252235-8.583529 16.564706-17.106824 24.877177-25.72047 40.387765-41.712941 80.835765-83.365647 121.163294-125.108706 6.083765-6.294588 12.890353-10.601412 21.895529-9.426824 9.487059 1.234824 16.323765 6.354824 19.516236 15.600942 3.403294 9.818353 0.632471 18.191059-6.475294 25.539764-34.123294 35.117176-68.186353 70.354824-102.27953 105.532236-1.686588 1.807059-3.373176 3.704471-6.686117 7.348706z m378.337882 230.038588H268.348235c-2.861176 0-5.722353 0.090353-8.553411-0.060236a23.973647 23.973647 0 0 1-22.91953-22.256941 23.792941 23.792941 0 0 1 18.82353-24.304941c2.981647-0.632471 6.174118-0.572235 9.276235-0.572235h481.310117c2.048 0 4.156235-0.090353 6.204236 0.090353 12.8 1.204706 22.678588 11.384471 21.202823 24.003764a34.334118 34.334118 0 0 1-8.643764 18.191059c-32.075294 33.852235-64.752941 67.162353-97.249883 100.653177-16.414118 16.926118-32.647529 34.032941-49.332706 50.718117-13.944471 13.944471-35.749647 8.131765-40.327529-10.541176-2.349176-9.547294 1.536-17.046588 8.101647-23.792941 33.611294-34.544941 67.162353-69.150118 100.743529-103.755294l7.890824-8.372706z"  horiz-adv-x="1024" />

    
    <glyph glyph-name="shangcheng" unicode="&#58966;" d="M886.93261719 665.91972656H138.45429687L70.39970703 468.48046875c0-60.79921875 49.49384766-110.18583984 110.61386719-110.18583984 61.01367188 0 110.61298828 49.28027344 110.61298828 110.18583984 0-60.79921875 49.49384766-110.18583984 110.61386719-110.18583984 61.01367188 0 110.61298828 49.28027344 110.61298828 110.18583984 0-60.79921875 49.49296875-110.18583984 110.61298828-110.18583984 61.01367188 0 110.61386719 49.28027344 110.61386719 110.18583984 0-60.79921875 49.49296875-110.18583984 110.61298828-110.18583984 61.01367188 0 110.61298828 49.28027344 110.61298828 110.18583984l-68.37275391 197.44013672z m-673.59902344 34.56035157h598.82607422c22.50703125 0 40.85332031 14.93261719 40.85332031 33.27978515s-18.34628906 33.27978516-40.85332031 33.27978516H213.33359375c-22.50703125 0-40.85332031-14.93261719-40.85332031-33.27978516 0-18.45351563 18.23994141-33.27978516 40.85332031-33.27978515z m520.53310547-347.4140625c-29.97333984-28.05292969-69.01347656-43.41269531-110.61298828-43.41269532-41.49316406 0-80.53417969 15.35976562-110.61386719 43.41357422-29.97333984-28.05380859-69.01347656-43.41357422-110.61298828-43.41357422s-80.53417969 15.35976562-110.61386719 43.41357422c-29.97333984-28.05380859-69.01259766-43.41357422-110.61298828-43.41357422-2.88017578 0-5.653125 0.10634766-8.53330078 0.21357422v-242.88046875c0-40.53339844 36.69345703-66.55957031 68.05371094-66.55957031h544.31982421c40.95966797 0 68.05371094 30.18691406 68.05371094 66.55957031V309.86689452999997c-2.88017578-0.10722656-5.65400391-0.21357422-8.53417969-0.21357422-41.27958984 0-80.31972656 15.35976562-110.2930664 43.41357422z m0 0"  horiz-adv-x="1024" />

    
    <glyph glyph-name="touxiang" unicode="&#58906;" d="M501.76 358.4c142.08 0 258.56 115.2 258.56 257.28 0 142.08-115.2 257.28-258.56 257.28-142.08 0-258.56-115.2-258.56-257.28C244.48 473.6 359.68 358.4 501.76 358.4z m106.24-25.6H414.72C235.52 332.8 89.6 186.88 89.6 7.68v-19.2c0-93.44 143.36-93.44 325.12-93.44h193.28c175.36 0 326.4 0 326.4 93.44v19.2C934.4 186.88 788.48 332.8 608 332.8z"  horiz-adv-x="1024" />

    
    <glyph glyph-name="kejian" unicode="&#58907;" d="M819.2-87.04c-301.602133 0-574.6688 163.84-819.2 491.52C244.5312 732.16 517.597867 896 819.2 896s574.6688-163.84 819.2-491.52c-244.5312-327.68-517.597867-491.52-819.2-491.52z m0 133.12c238.7968 0 454.929067 119.466667 648.533333 358.4-193.604267 238.933333-409.736533 358.4-648.533333 358.4S364.270933 643.413333 170.666667 404.48c193.604267-238.933333 409.736533-358.4 648.533333-358.4zM819.2 404.48m-245.76 0a245.76 245.76 0 1 1 491.52 0 245.76 245.76 0 1 1-491.52 0Z"  horiz-adv-x="1638" />

    
    <glyph glyph-name="shangcheng1" unicode="&#59069;" d="M945.2544 709.0176H78.7456L0 481.6896C0 411.648 57.344 354.9184 128 354.9184S256 411.648 256 481.792c0-70.0416 57.344-126.8736 128-126.8736S512 411.648 512 481.6896c0-70.0416 57.344-126.8736 128-126.8736s128 56.7296 128 126.8736c0-70.0416 57.344-126.8736 128-126.8736s128 56.7296 128 126.8736l-78.7456 227.328m-779.8784 39.7312h693.248c26.112 0 47.3088 17.1008 47.3088 38.2976S884.736 825.344 858.624 825.344h-693.248c-26.112 0-47.3088-17.1008-47.3088-38.2976 0.1024-21.1968 21.1968-38.2976 47.3088-38.2976M768 348.7744c-34.7136-32.256-79.872-49.9712-128-49.9712-48.0256 0-93.2864 17.7152-128 49.9712-34.7136-32.256-79.9744-49.9712-128-49.9712-48.0256 0-93.2864 17.7152-128 49.9712-34.7136-32.256-79.9744-49.9712-128-49.9712-3.2768 0-6.5536 0.1024-9.8304 0.2048v-279.7568c0-46.592 42.3936-76.5952 78.7456-76.5952h630.1696c47.4112 0 78.7456 34.816 78.7456 76.5952V299.008c-3.2768-0.2048-6.5536-0.3072-9.8304-0.3072-48.0256 0-93.2864 17.7152-128 50.0736"  horiz-adv-x="1024" />

    
    <glyph glyph-name="dianfei" unicode="&#59263;" d="M510.9 832.1h-10c-170.3-10-313.1-152.8-313.1-325.6 0-85.2 27.6-162.8 85.2-220.4l20-20c37.6-47.6 57.6-57.6 57.6-115.2v-27.6h323.1v27.6c0 57.6 20 77.6 57.6 115.2l27.6 27.6C806.4 351.2 834 426.4 834 504c0 185.4-142.8 328.1-323.1 328.1z m25-165.3c0-7.5-7.5-27.6-27.6-27.6-75.1 0-132.7-65.1-132.7-132.7 0-7.5-20-27.6-27.6-27.6s-27.6 7.5-27.6 27.6c0 105.2 85.2 190.4 190.4 190.4 20.1 0 27.6-17.6 25.1-30.1zM576-9.4H443.3c-17.5 0-27.6-10-27.6-27.6 0-20 20-27.6 27.6-27.6H576c20 0 27.6 10 27.6 27.6 0 17.5-20.1 27.6-27.6 27.6zM350.6 58.2c0-20 20-27.6 27.6-27.6h255.5c20 0 27.6 10 27.6 27.6 0 20-20 27.6-27.6 27.6H378.1c-10-0.1-27.5-10.1-27.5-27.6"  horiz-adv-x="1024" />

    
    <glyph glyph-name="shouzhimingxi" unicode="&#58911;" d="M686.8 572.8c21.3 24.8 35.3 45.1 44.5 60.6 14.6 24.7 20.9 53.6 16.3 81.9-16.4 101.4-140.4 62.2-140.4 62.2s-91.5 91-190.5 0c0 0-124 39.2-140.4-62.2-4.6-28.3 1.7-57.2 16.3-81.9 9.2-15.5 23.2-35.8 44.5-60.6 0 0-282.3-133.7-256.5-454.5 3.1-38.1 16.2-74.9 39.8-105 24.5-31.3 64.1-61.7 125.6-63.9h531.8c61.6 2.2 101.1 32.6 125.6 63.9 23.6 30.1 36.7 66.9 39.8 105 25.9 320.8-256.4 454.5-256.4 454.5zM369.1 448.7c7.3 6.9 18.8 6.6 25.8-0.7l83.7-88.3c6.9-7.3 6.6-18.8-0.7-25.8-3.5-3.3-8-5-12.5-5-4.8 0-9.6 1.9-13.2 5.7l-83.7 88.3c-7 7.3-6.7 18.9 0.6 25.8z m273.1-231.5c10.1 0 18.2-8.2 18.2-18.2 0-10.1-8.2-18.2-18.2-18.2H530.8v-97.4c0-10.1-8.2-18.2-18.2-18.2-10.1 0-18.2 8.2-18.2 18.2v97.4H381.7c-10.1 0-18.2 8.2-18.2 18.2 0 10.1 8.2 18.2 18.2 18.2h112.7v53.1H381.7c-10.1 0-18.2 8.2-18.2 18.2 0 10.1 8.2 18.2 18.2 18.2H496c0.8 1.9 2 3.7 3.4 5.2L629 448c6.9 7.3 18.5 7.6 25.8 0.6 7.3-6.9 7.6-18.5 0.6-25.8l-110.7-116h97.4c10.1 0 18.2-8.2 18.2-18.2 0-10.1-8.2-18.2-18.2-18.2H530.8v-53.1h111.4z"  horiz-adv-x="1024" />

    
    <glyph glyph-name="renzheng" unicode="&#59038;" d="M793.6 85.5c-87-81.7-257-142-278.8-149.5-2.1 0.2-4.1 0.6-6.2 0.5-25.8 8.9-191.9 68.3-277.7 149-61.7 58.1-86.8 111.6-96.5 150.2h-0.2V709.5c0.1 0 0.2 0.1 0.4 0.1 0.9 8 7.1 14 15.2 14.4l0.4 0.7c7.6-0.2 15-0.6 22.9-0.6 153.6 0 283.3 42.5 325.1 100.6 0.4-0.1 0.6-0.4 1-0.5 2.9 4.6 7.7 7.7 13.4 7.7s10.4-3.1 13.3-7.5c0.4 0.1 0.6 0.4 1 0.5C568.6 766.6 698.5 724 852.2 724c6.8 0 13.4 0.4 20.1 0.5 0.1-0.2 0.1-0.5 0.2-0.7 0.4 0 0.7 0.2 1.2 0.2 8.9 0 16.2-7.2 16.2-16.2v-0.4c0-0.6-0.2-1.1-0.4-1.7 0.1 0 0.2-0.1 0.4-0.1v-471.2c-10-38.2-35.1-91.3-96.3-148.9zM692.6 554L512.5 343.9l-133.8 79.6-50.6-66.6 184.4-140 242.4 281.3-62.3 55.8z"  horiz-adv-x="1024" />

    
    <glyph glyph-name="index-copy" unicode="&#58880;" d="M569.8048 874.7264a82.0736 82.0736 0 0 1-110.2848 0L13.568 451.2768a41.1392 41.1392 0 0 1 55.0912-61.1072l7.0912 6.7328V-45.05600000000004a82.2784 82.2784 0 0 1 82.2784-82.3808h239.4368v247.7056a57.9328 57.9328 0 0 0 57.9584 58.0096h112.6656a57.9328 57.9328 0 0 0 57.9584-58.0096v-247.7056h245.12a82.2784 82.2784 0 0 1 82.304 82.3808V391.5008c18.2784-16.5376 44.2112-15.2832 59.4176 1.664a41.1392 41.1392 0 0 1-2.9696 58.112L569.8048 874.7008z"  horiz-adv-x="1024" />

    
    <glyph glyph-name="kuangji" unicode="&#59277;" d="M1081.878261 361.73913h-133.565218l-66.782608 320.556522-186.991305 89.043478-169.182608-22.260869L454.121739 891.547826 222.608696 780.243478 151.373913 361.73913H26.713043l169.182609-373.982608h62.330435v-8.904348c0-53.426087 44.521739-97.947826 97.947826-97.947826 53.426087 0 97.947826 44.521739 97.947826 97.947826v8.904348h200.347826v-8.904348c0-53.426087 44.521739-97.947826 97.947826-97.947826 53.426087 0 97.947826 44.521739 97.947826 97.947826v8.904348h57.878261l173.634783 373.982608zM454.121739 526.469565h40.069565v-133.565217h-40.069565v133.565217zM373.982609 584.347826h40.069565v-191.443478h-40.069565V584.347826zM271.582609 646.678261H311.652174v-253.773913h-40.069565V646.678261z"  horiz-adv-x="1113" />

    
    <glyph glyph-name="shui" unicode="&#58947;" d="M512 896S196.163855 362.199904 196.163855 187.836145s141.410699-315.836145 315.836145-315.836145 315.836145 141.386024 315.836145 315.836145S512 896 512 896z m0.123373-964.176193c-192.586024 0-236.877108 216.939952-236.877108 216.939952 114.095807-94.380723 204.466892-99.587084 229.758458-98.933205a58.565398 58.565398 0 0 0 7.093976 0.431807 59.219277 59.219277 0 0 0 0-118.438554z"  horiz-adv-x="1024" />

    


  </font>
</defs>
</svg>
